<svg width="24" height="24" viewBox="0 0 24 24" fill="none" xmlns="http://www.w3.org/2000/svg">
<g clip-path="url(#clip0_7_222)">
<path d="M12 11.028V17.8337C11.9982 18.4624 11.8695 19.0841 11.6216 19.6618C11.3737 20.2395 11.0116 20.7612 10.5573 21.1956C10.1029 21.63 9.56543 21.9682 8.97719 22.1899C8.38894 22.4116 7.76199 22.5122 7.13392 22.4858C6.50584 22.4593 5.88956 22.3063 5.32204 22.036C4.75451 21.7656 4.24741 21.3835 3.83114 20.9124C3.41487 20.4413 3.09799 19.8911 2.89951 19.2946C2.70103 18.6981 2.62502 18.0677 2.67605 17.4411C1.70405 16.3971 1.09033 14.3554 1.09033 12.6514C1.09033 10.3303 2.23033 8.07258 3.86233 7.18286C3.77391 6.37211 3.9305 5.55347 4.31188 4.83258C4.69326 4.1117 5.28193 3.52165 6.00193 3.13859C6.72192 2.75552 7.54019 2.59703 8.35115 2.68355C9.1621 2.77008 9.92851 3.09765 10.5515 3.62401" stroke="#006597" stroke-width="1.6" stroke-linecap="round" stroke-linejoin="round"/>
<path d="M6.01889 9.95825C5.41889 9.82111 4.06289 8.92968 3.85889 7.19482M3.92575 14.9931C3.31546 15.4748 2.82861 16.5651 2.67261 17.4394M12 17.8337C12.0019 18.4623 12.1306 19.0841 12.3785 19.6618C12.6264 20.2395 12.9884 20.7611 13.4428 21.1956C13.8972 21.63 14.4346 21.9681 15.0229 22.1898C15.6111 22.4115 16.2381 22.5122 16.8662 22.4857C17.4942 22.4593 18.1105 22.3063 18.678 22.0359C19.2456 21.7656 19.7527 21.3834 20.1689 20.9124C20.5852 20.4413 20.9021 19.891 21.1006 19.2946C21.2991 18.6981 21.3751 18.0677 21.324 17.4411C22.296 16.3971 22.908 14.3554 22.908 12.6514C22.908 11.9074 22.7915 11.1703 22.5789 10.4811" stroke="#006597" stroke-width="1.6" stroke-linecap="round" stroke-linejoin="round"/>
<path d="M20.0744 14.9931C20.6846 15.4748 21.1715 16.5651 21.3275 17.4394M12.1098 7.38339C11.5098 7.2771 11.5098 6.41482 12.1098 6.31025C13.1751 6.12427 14.1611 5.62562 14.9423 4.87773C15.7234 4.12984 16.2645 3.1665 16.4966 2.11025L16.5326 1.94396C16.6629 1.3491 17.5098 1.34396 17.6452 1.93882L17.6881 2.13253C17.9276 3.1847 18.4731 4.14247 19.2559 4.88526C20.0387 5.62806 21.0237 6.12266 22.0869 6.30682C22.6921 6.41139 22.6921 7.28053 22.0869 7.38682C21.0237 7.57097 20.0387 8.06558 19.2559 8.80837C18.4731 9.55117 17.9276 10.5089 17.6881 11.5611L17.6452 11.7531C17.5081 12.3462 16.6629 12.3428 16.5326 11.748L16.4966 11.5834C16.2645 10.5271 15.7234 9.5638 14.9423 8.81591C14.1611 8.06802 13.1751 7.56937 12.1098 7.38339Z" stroke="#006597" stroke-width="1.6" stroke-linecap="round" stroke-linejoin="round"/>
</g>
<defs>
<clipPath id="clip0_7_222">
<rect width="24" height="24" fill="white"/>
</clipPath>
</defs>
</svg>
