<svg width="24" height="24" viewBox="0 0 24 24" fill="none" xmlns="http://www.w3.org/2000/svg">
<path fill-rule="evenodd" clip-rule="evenodd" d="M12.05 1.25H11.95C11.286 1.25 10.713 1.25 10.254 1.312C9.763 1.378 9.291 1.527 8.909 1.909C8.527 2.291 8.378 2.763 8.312 3.254C8.25 3.713 8.25 4.286 8.25 4.951V7.378C8.00884 7.29399 7.75537 7.25073 7.5 7.25H4.5C4.20453 7.25 3.91194 7.3082 3.63896 7.42127C3.36598 7.53434 3.11794 7.70008 2.90901 7.90901C2.70008 8.11794 2.53434 8.36598 2.42127 8.63896C2.3082 8.91195 2.25 9.20453 2.25 9.5V21.25H2C1.80109 21.25 1.61032 21.329 1.46967 21.4697C1.32902 21.6103 1.25 21.8011 1.25 22C1.25 22.1989 1.32902 22.3897 1.46967 22.5303C1.61032 22.671 1.80109 22.75 2 22.75H22C22.1989 22.75 22.3897 22.671 22.5303 22.5303C22.671 22.3897 22.75 22.1989 22.75 22C22.75 21.8011 22.671 21.6103 22.5303 21.4697C22.3897 21.329 22.1989 21.25 22 21.25H21.75V14.5C21.75 13.9033 21.5129 13.331 21.091 12.909C20.669 12.4871 20.0967 12.25 19.5 12.25H16.5C16.236 12.2513 15.986 12.294 15.75 12.378V4.951C15.75 4.286 15.75 3.713 15.688 3.254C15.622 2.763 15.473 2.291 15.091 1.909C14.709 1.527 14.238 1.378 13.746 1.312C13.287 1.25 12.714 1.25 12.049 1.25M20.249 21.25V14.5C20.249 14.3011 20.17 14.1103 20.0293 13.9697C19.8887 13.829 19.6979 13.75 19.499 13.75H16.499C16.3001 13.75 16.1093 13.829 15.9687 13.9697C15.828 14.1103 15.749 14.3011 15.749 14.5V21.25H20.249ZM14.249 21.25V5C14.249 4.272 14.247 3.8 14.201 3.454C14.157 3.129 14.086 3.027 14.029 2.97C13.972 2.913 13.87 2.842 13.545 2.798C13.198 2.752 12.727 2.75 11.999 2.75C11.271 2.75 10.799 2.752 10.453 2.798C10.128 2.842 10.026 2.913 9.969 2.97C9.912 3.027 9.841 3.129 9.797 3.454C9.751 3.801 9.749 4.272 9.749 5V21.25H14.249ZM8.249 21.25V9.5C8.249 9.30109 8.16998 9.11032 8.02933 8.96967C7.88868 8.82902 7.69791 8.75 7.499 8.75H4.499C4.30009 8.75 4.10932 8.82902 3.96867 8.96967C3.82802 9.11032 3.749 9.30109 3.749 9.5V21.25H8.249Z" fill="#006597"/>
</svg>
